# xmcd
#
# Track frame offsets:
#	150
#	19663
#	39045
#	57043
#	76895
#	96900
#	121933
#	139893
#	157350
#	176880
#	192183
#	205273
#	220258
#	236875
#	250488
#	257698
#
# Disc length: 3658 seconds
#
# Revision: 1
# Processed by: cddbd v1.5.1PL0 Copyright (c) Steve Scherf et al.
# Submitted via: CDex 1.50Beta5
#
DISCID=e40e4810
DTITLE=遠藤正明 - テレビまんが大行進
DYEAR=2003
DGENRE=
TTITLE0=遠藤正明/爆竜戦隊アバレンジャー
TTITLE1=串田アキラ/We are the ONE〜僕らはひとつ〜
TTITLE2=サイキックラバー/TRANSFORMER-Dream Again
TTITLE3=サイキックラバー/Never Ending Road
TTITLE4=COOL/超時空的DNA
TTITLE5=COOL/ALIVE〜the way to there〜
TTITLE6=高取ヒデアキ/ボーイズ・アンド・ガールス!
TTITLE7=堀江美都子/Birthday Smile
TTITLE8=由紀さおり/虹色の砂時計
TTITLE9=しんのすけ、みさえ/ママとのお約束条項の歌
TTITLE10=ムーンリップス/ムーンライト伝説
TTITLE11=影山ヒロノブ/CHA-LA HEAD-CHA-LA
TTITLE12=MAKE-UP/ペガサス幻想
TTITLE13=青柳常夫/POPEE the クラウン(オリジナル)
TTITLE14=ハムちゃんず/ハム太郎とっとこうた またつづきでちゅ!(オリジナルテレビバージョン セリフつき)
TTITLE15=ハムちゃんず/てをつなごう
EXTD=
EXTT0=
EXTT1=
EXTT2=
EXTT3=
EXTT4=
EXTT5=
EXTT6=
EXTT7=
EXTT8=
EXTT9=
EXTT10=
EXTT11=
EXTT12=
EXTT13=
EXTT14=
EXTT15=
PLAYORDER=
